<?xml version="1.0" standalone="no"?>
<!DOCTYPE svg PUBLIC "-//W3C//DTD SVG 20010904//EN"
 "http://www.w3.org/TR/2001/REC-SVG-20010904/DTD/svg10.dtd">
<svg version="1.0" xmlns="http://www.w3.org/2000/svg"
 width="666.000000pt" height="666.000000pt" viewBox="0 0 666.000000 666.000000"
 preserveAspectRatio="xMidYMid meet">
<metadata>
Created by potrace 1.14, written by Peter Selinger 2001-2017
</metadata>
<g transform="translate(0.000000,666.000000) scale(0.100000,-0.100000)"
fill="#000000" stroke="none">
<path d="M1309 5952 c-9 -9 -24 -30 -34 -45 -15 -23 -20 -26 -27 -14 -8 16
-47 12 -59 -5 -3 -5 -22 -10 -41 -11 -20 -1 -42 -8 -49 -14 -8 -6 -28 -15 -44
-19 -17 -4 -36 -11 -43 -17 -7 -5 -15 -7 -19 -4 -3 4 -12 2 -20 -4 -7 -6 -22
-9 -33 -6 -15 4 -20 0 -20 -14 0 -10 -9 -23 -20 -29 -11 -6 -20 -8 -20 -4 0 4
-11 -5 -25 -19 -30 -29 -70 -43 -61 -22 9 25 -10 25 -85 0 -41 -13 -140 -45
-222 -71 -83 -26 -146 -51 -145 -58 1 -6 -5 -24 -14 -41 -8 -16 -13 -36 -11
-42 3 -7 -7 -18 -21 -24 -14 -7 -26 -16 -26 -21 0 -4 -4 -8 -10 -8 -13 0 -50
-37 -50 -51 0 -5 -10 -9 -21 -7 -15 2 -26 -6 -38 -27 -9 -17 -20 -32 -26 -33
-5 -2 -8 -12 -7 -24 3 -15 0 -19 -11 -15 -18 7 -61 -40 -63 -68 -2 -39 -4 -44
-25 -64 -26 -24 -20 -78 13 -104 13 -10 35 -28 50 -41 14 -13 35 -27 46 -30
11 -4 22 -16 25 -26 5 -19 28 -25 85 -23 6 1 12 -4 12 -11 0 -6 23 -33 50 -60
28 -27 50 -52 50 -57 0 -5 6 -8 13 -6 6 1 12 -7 12 -17 0 -11 7 -21 15 -24 8
-2 24 -13 36 -24 21 -19 80 -32 88 -20 4 6 71 8 129 3 9 0 17 -7 17 -15 0 -7
6 -19 14 -25 10 -9 39 -109 41 -143 0 -3 12 -16 27 -27 15 -12 34 -43 43 -71
9 -28 21 -50 25 -50 16 0 33 -44 35 -87 0 -23 4 -46 8 -49 4 -4 7 -17 7 -29 0
-12 3 -25 8 -29 4 -4 7 -13 7 -19 0 -7 12 -18 27 -25 29 -14 90 -90 83 -103
-3 -4 11 -25 30 -46 19 -21 35 -48 35 -60 0 -12 5 -25 10 -28 6 -3 10 -15 10
-26 0 -10 5 -19 10 -19 6 0 10 -9 10 -20 0 -14 11 -22 41 -30 22 -6 43 -19 46
-28 8 -25 84 -91 113 -99 54 -14 166 -98 172 -129 2 -10 6 -18 10 -17 20 7 70
-62 72 -98 1 -19 38 -89 47 -89 4 0 6 -8 5 -17 -4 -26 14 -62 34 -68 10 -3 25
-14 34 -24 10 -11 25 -17 35 -14 24 6 97 -39 144 -90 34 -38 41 -50 38 -69 0
-4 21 -19 48 -33 47 -24 77 -65 53 -73 -6 -2 -8 -10 -6 -17 3 -8 2 -20 -2 -27
-5 -7 -7 -23 -5 -35 1 -13 -2 -23 -8 -23 -22 0 -10 -23 35 -64 36 -34 51 -42
72 -38 27 5 27 5 9 -16 -18 -20 -18 -21 3 -32 20 -11 20 -13 6 -29 -15 -16
-13 -20 25 -54 42 -38 64 -46 71 -25 3 8 10 4 17 -11 9 -17 10 -26 2 -34 -6
-6 -11 -17 -11 -25 0 -19 80 -92 109 -99 14 -3 36 -12 50 -19 14 -8 32 -14 39
-14 8 0 30 -17 50 -37 20 -21 37 -36 37 -34 0 10 85 -50 94 -67 10 -19 5 -58
-11 -79 -5 -7 -5 -14 2 -18 6 -3 8 -10 5 -15 -3 -5 -1 -11 4 -15 17 -10 40
-65 34 -81 -3 -8 1 -14 11 -14 11 0 16 -9 16 -26 0 -14 4 -23 9 -19 24 14 48
-72 26 -93 -2 -2 3 -22 11 -44 9 -28 11 -45 4 -58 -15 -28 -12 -57 6 -64 11
-4 15 -14 12 -31 -3 -13 -1 -26 4 -27 5 -2 6 -11 3 -21 -4 -9 -11 -14 -16 -11
-17 10 -9 -17 13 -46 12 -17 28 -30 35 -30 7 0 13 -6 13 -13 0 -15 74 -42 89
-33 5 3 16 -3 26 -14 10 -11 14 -20 10 -20 -5 0 1 -9 13 -20 12 -11 26 -20 32
-20 5 0 10 -6 10 -12 0 -7 13 -27 30 -45 27 -28 28 -34 19 -63 -10 -27 -8 -34
10 -54 11 -12 21 -31 21 -42 0 -25 24 -59 42 -59 7 0 14 -9 16 -20 2 -11 8
-30 14 -42 12 -23 10 -28 -27 -92 -15 -26 -6 -58 21 -74 8 -5 13 -29 13 -65 1
-73 6 -98 20 -94 6 1 22 -7 34 -18 31 -30 64 -36 86 -16 21 19 12 24 105 -59
37 -33 76 -46 76 -25 0 6 -4 10 -10 10 -19 0 -10 17 36 64 27 29 51 45 60 42
27 -10 131 61 179 125 l46 60 -40 40 c-22 23 -44 38 -50 35 -5 -3 -17 1 -26
10 -16 17 -16 19 24 67 14 16 16 16 43 -10 25 -24 31 -26 48 -15 22 13 22 13
24 -43 1 -33 18 -39 52 -19 12 7 32 15 45 16 13 2 44 16 69 30 25 15 56 31 70
36 35 13 75 121 58 157 -6 14 -19 25 -28 25 -10 0 -23 12 -29 27 -14 36 -1 89
22 87 10 -1 17 1 17 5 0 4 7 8 16 8 9 0 17 -12 21 -27 4 -21 10 -26 24 -23 10
3 24 11 30 19 13 16 59 19 59 4 0 -17 19 -11 48 14 35 32 132 96 143 96 5 0 9
-5 9 -11 0 -6 10 -9 23 -7 12 2 22 8 22 15 0 18 66 71 100 78 16 4 37 9 45 12
8 2 30 5 48 6 19 1 39 10 47 20 7 10 41 35 76 56 35 22 64 45 64 52 0 8 5 21
10 29 5 8 11 30 15 50 3 21 11 35 20 35 23 1 60 15 60 24 0 5 27 19 61 31 38
15 64 31 69 44 13 30 41 61 75 82 17 10 34 24 38 31 4 7 14 13 22 13 27 0 63
23 68 42 5 16 2 19 -16 14 -24 -6 -47 9 -47 33 0 9 14 36 31 61 53 78 119 104
141 55 13 -29 12 -28 57 -15 19 5 39 6 45 1 6 -4 27 -8 46 -7 30 1 37 6 52 38
10 20 18 52 20 72 1 20 7 36 14 36 6 0 17 6 23 14 7 8 26 18 42 21 34 8 118
86 135 125 6 14 7 41 3 63 -5 28 2 73 23 160 33 136 86 248 146 308 21 20 45
52 55 71 10 19 28 46 41 59 12 13 29 35 39 49 37 53 201 211 260 249 34 23 67
44 72 49 15 11 75 38 120 53 22 7 44 17 50 21 5 4 22 8 37 8 15 0 28 4 28 9 0
5 -61 72 -135 148 -75 76 -293 298 -484 493 -191 195 -381 391 -422 434 -41
43 -174 178 -296 300 l-223 221 -172 2 c-95 0 -281 4 -413 8 -267 7 -779 17
-810 15 -11 -1 -26 -1 -32 -1 -7 0 -38 1 -69 2 l-56 2 7 74 c4 41 8 84 11 97
3 19 -48 102 -111 179 -8 9 -15 21 -15 25 0 4 -11 19 -24 33 -13 14 -29 35
-35 47 -6 12 -16 22 -22 22 -9 0 -67 -37 -79 -51 -3 -3 -19 -14 -37 -24 -25
-15 -35 -16 -46 -7 -17 14 -11 63 9 75 16 9 19 47 4 47 -5 0 -10 9 -10 20 0
11 -3 20 -7 21 -36 3 -120 8 -233 13 -74 4 -169 9 -210 11 -41 3 -133 7 -205
10 -71 3 -164 7 -205 10 -41 2 -147 7 -235 10 -88 3 -203 8 -255 10 -338 17
-338 17 -387 13 -7 -1 -13 -5 -13 -9 0 -5 -13 -6 -30 -3 -17 4 -36 1 -44 -5
-11 -9 -15 -5 -19 19 -7 34 -15 36 -38 12z"/>
</g>
</svg>
